<?xml version="1.0" encoding="utf-8"?><svg fill="none" viewBox="0 0 2750 1850" xmlns="http://www.w3.org/2000/svg"><defs /><g transform="matrix(1,0,0,1,0,0)" id="color_3"><g><path fill="#8b8b8b" fill-opacity="0" d="M1836,1301L1936,1301L1936,1351L1836,1351L1836,1301ZM1886,1351L1986,1351L1986,1401L1886,1401L1886,1351ZM1936,1401L2086,1401L2086,1451L1936,1451L1936,1401ZM2036,1451L2136,1451L2136,1601L2036,1601L2036,1451ZM1786,1551L2036,1551L2036,1601L1786,1601L1786,1551Z" /></g><g><path fill="#8b8b8b" fill-opacity="0" d="M2286,1351L2336,1351L2336,1451L2286,1451L2286,1351ZM2236,1401L2286,1401L2286,1501L2236,1501L2236,1401ZM2186,1451L2236,1451L2236,1551L2186,1551L2186,1451ZM2136,1501L2186,1501L2186,1601L2136,1601L2136,1501ZM2086,1551L2136,1551L2136,1651L2086,1651L2086,1551ZM1986,1601L2086,1601L2086,1651L1986,1651L1986,1601Z" /></g><g><path fill="#8b8b8b" fill-opacity="0" d="M2336,1551L2386,1551L2386,1651L2336,1651L2336,1551ZM2286,1601L2336,1601L2336,1701L2286,1701L2286,1601ZM2236,1651L2286,1651L2286,1751L2236,1751L2236,1651ZM2186,1701L2236,1701L2236,1801L2186,1801L2186,1701ZM2136,1751L2186,1751L2186,1850L2136,1850L2136,1751ZM2036,1801L2136,1801L2136,1850L2036,1850L2036,1801Z" /></g><g><path fill="#8b8b8b" fill-opacity="0" d="M2336,1501L2386,1501L2386,1601L2336,1601L2336,1501ZM2286,1551L2336,1551L2336,1651L2286,1651L2286,1551ZM2236,1601L2286,1601L2286,1701L2236,1701L2236,1601ZM2186,1651L2236,1651L2236,1751L2186,1751L2186,1651ZM2136,1701L2186,1701L2186,1801L2136,1801L2136,1701ZM1886,1751L2136,1751L2136,1801L1886,1801L1886,1751Z" /></g><g><path fill="#8b8b8b" fill-opacity="0" d="M2336,1651L2436,1651L2436,1701L2336,1701L2336,1651ZM2236,1701L2336,1701L2336,1751L2236,1751L2236,1701ZM2136,1751L2236,1751L2236,1801L2136,1801L2136,1751ZM1886,1801L2186,1801L2186,1850L1886,1850L1886,1801Z" /></g><g><path fill="#8b8b8b" fill-opacity="0" d="M2336,1551L2386,1551L2386,1651L2336,1651L2336,1551ZM2286,1601L2336,1601L2336,1701L2286,1701L2286,1601ZM2236,1651L2286,1651L2286,1751L2236,1751L2236,1651ZM2186,1701L2236,1701L2236,1801L2186,1801L2186,1701ZM2136,1751L2186,1751L2186,1850L2136,1850L2136,1751ZM1886,1801L2136,1801L2136,1850L1886,1850L1886,1801Z" /></g><g><path fill="#8b8b8b" fill-opacity="0" d="M2236,1201L2336,1201L2336,1401L2236,1401L2236,1201ZM2186,1251L2236,1251L2236,1451L2186,1451L2186,1251ZM2336,1251L2386,1251L2386,1351L2336,1351L2336,1251ZM2136,1301L2186,1301L2186,1501L2136,1501L2136,1301ZM1836,1401L2136,1401L2136,1501L1836,1501L1836,1401ZM2236,1401L2286,1401L2286,1451L2236,1451L2236,1401Z" /></g><g><path fill="#8b8b8b" fill-opacity="0" d="M2036,701L2086,701L2086,1001L2036,1001L2036,701ZM1786,951L2036,951L2036,1001L1786,1001L1786,951Z" /></g><g><path fill="#8b8b8b" fill-opacity="0" d="M1786,901L1886,901L1886,1001L1786,1001L1786,901ZM1886,951L1986,951L1986,1051L1886,1051L1886,951ZM1986,1001L2136,1001L2136,1151L1986,1151L1986,1001ZM1786,1101L1986,1101L1986,1151L1786,1151L1786,1101Z" /></g></g><g transform="matrix(1,0,0,1,0,0)" id="dark_orange"><g><path fill="#be684d" fill-opacity="0" d="M936,1051L1036,1051L1036,1301L936,1301L936,1051ZM1036,1251L1136,1251L1136,1301L1036,1301L1036,1251ZM1086,1301L1136,1301L1136,1551L1086,1551L1086,1301ZM936,1501L1086,1501L1086,1551L936,1551L936,1501ZM936,1551L1036,1551L1036,1850L936,1850L936,1551Z" /></g><g><path fill="#be684d" fill-opacity="0" d="M986,1101L1186,1101L1186,1651L986,1651L986,1101ZM1786,1151L1836,1151L1836,1501L1786,1501L1786,1151ZM1836,1351L1886,1351L1886,1501L1836,1501L1836,1351ZM1886,1401L1936,1401L1936,1501L1886,1501L1886,1401ZM1936,1451L1986,1451L1986,1501L1936,1501L1936,1451ZM1036,1651L1136,1651L1136,1801L1036,1801L1036,1651ZM986,1751L1036,1751L1036,1850L986,1850L986,1751ZM1036,1801L1086,1801L1086,1850L1036,1850L1036,1801Z" /></g><g><path fill="#be684d" fill-opacity="0" d="M1036,1151L1236,1151L1236,1701L1036,1701L1036,1151ZM1836,1401L2036,1401L2036,1501L1836,1501L1836,1401ZM1986,1501L2036,1501L2036,1651L1986,1651L1986,1501ZM1036,1701L1136,1701L1136,1801L1036,1801L1036,1701ZM986,1751L1036,1751L1036,1850L986,1850L986,1751ZM1036,1801L1086,1801L1086,1850L1036,1850L1036,1801Z" /></g><g><path fill="#be684d" fill-opacity="0" d="M1036,1151L1236,1151L1236,1701L1036,1701L1036,1151ZM1836,1651L2036,1651L2036,1801L1836,1801L1836,1651ZM1036,1701L1136,1701L1136,1801L1036,1801L1036,1701ZM986,1751L1036,1751L1036,1850L986,1850L986,1751ZM1036,1801L1086,1801L1086,1850L1036,1850L1036,1801Z" /></g><g><path fill="#be684d" fill-opacity="0" d="M1036,1151L1236,1151L1236,1701L1036,1701L1036,1151ZM1986,1501L2036,1501L2036,1701L1986,1701L1986,1501ZM1836,1651L1986,1651L1986,1701L1836,1701L1836,1651ZM1036,1701L1136,1701L1136,1801L1036,1801L1036,1701ZM986,1751L1036,1751L1036,1850L986,1850L986,1751ZM1036,1801L1086,1801L1086,1850L1036,1850L1036,1801Z" /></g><g><path fill="#be684d" fill-opacity="0" d="M1036,1101L1236,1101L1236,1651L1036,1651L1036,1101ZM1836,1151L1886,1151L1886,1501L1836,1501L1836,1151ZM1886,1351L1936,1351L1936,1501L1886,1501L1886,1351ZM1936,1401L1986,1401L1986,1501L1936,1501L1936,1401ZM1986,1451L2036,1451L2036,1501L1986,1501L1986,1451ZM1036,1651L1136,1651L1136,1801L1036,1801L1036,1651ZM986,1751L1036,1751L1036,1850L986,1850L986,1751ZM1036,1801L1086,1801L1086,1850L1036,1850L1036,1801Z" /></g><g><path fill="#be684d" fill-opacity="0" d="M986,1001L1086,1001L1086,1651L986,1651L986,1001ZM986,1651L1036,1651L1036,1850L986,1850L986,1651Z" /></g></g><g transform="matrix(1,0,0,1,0,0)" id="orange"><g><path fill="#d87656" fill-opacity="0" d="M936,1051L1736,1051L1736,1151L936,1151L936,1051ZM936,1151L1036,1151L1036,1850L936,1850L936,1151ZM1136,1151L1536,1151L1536,1651L1136,1651L1136,1151ZM1636,1151L1736,1151L1736,1850L1636,1850L1636,1151ZM1036,1251L1136,1251L1136,1651L1036,1651L1036,1251ZM1536,1251L1636,1251L1636,1651L1536,1651L1536,1251ZM736,1301L936,1301L936,1501L736,1501L736,1301ZM1736,1301L1936,1301L1936,1501L1736,1501L1736,1301ZM1136,1651L1236,1651L1236,1850L1136,1850L1136,1651ZM1436,1651L1536,1651L1536,1850L1436,1850L1436,1651Z" /></g><g><path fill="#d87656" fill-opacity="0" d="M936,1101L1736,1101L1736,1301L936,1301L936,1101ZM736,1201L936,1201L936,1401L736,1401L736,1201ZM936,1301L1036,1301L1036,1850L936,1850L936,1301ZM1136,1301L1536,1301L1536,1701L1136,1701L1136,1301ZM1636,1301L1736,1301L1736,1850L1636,1850L1636,1301ZM1036,1401L1136,1401L1136,1701L1036,1701L1036,1401ZM1536,1401L1636,1401L1636,1701L1536,1701L1536,1401ZM1736,1451L1836,1451L1836,1651L1736,1651L1736,1451ZM1136,1701L1236,1701L1236,1850L1136,1850L1136,1701ZM1436,1701L1536,1701L1536,1850L1436,1850L1436,1701Z" /></g><g><path fill="#d87656" fill-opacity="0" d="M936,1101L1736,1101L1736,1301L936,1301L936,1101ZM736,1201L936,1201L936,1401L736,1401L736,1201ZM936,1301L1036,1301L1036,1850L936,1850L936,1301ZM1136,1301L1536,1301L1536,1701L1136,1701L1136,1301ZM1636,1301L1736,1301L1736,1850L1636,1850L1636,1301ZM1036,1401L1136,1401L1136,1701L1036,1701L1036,1401ZM1536,1401L1636,1401L1636,1701L1536,1701L1536,1401ZM1736,1451L1886,1451L1886,1601L1736,1601L1736,1451ZM1736,1601L1836,1601L1836,1651L1736,1651L1736,1601ZM1136,1701L1236,1701L1236,1850L1136,1850L1136,1701ZM1436,1701L1536,1701L1536,1850L1436,1850L1436,1701Z" /></g><g><path fill="#d87656" fill-opacity="0" d="M1036,1051L1736,1051L1736,1201L1036,1201L1036,1051ZM1036,1201L1136,1201L1136,1251L1036,1251L1036,1201ZM1236,1201L1636,1201L1636,1651L1236,1651L1236,1201ZM836,1301L1086,1301L1086,1501L836,1501L836,1301ZM1136,1301L1236,1301L1236,1850L1136,1850L1136,1301ZM1636,1301L1836,1301L1836,1551L1636,1551L1636,1301ZM1836,1351L1886,1351L1886,1551L1836,1551L1836,1351ZM1886,1401L1936,1401L1936,1551L1886,1551L1886,1401ZM1936,1451L2036,1451L2036,1551L1936,1551L1936,1451ZM1036,1551L1136,1551L1136,1651L1036,1651L1036,1551ZM1636,1551L1786,1551L1786,1601L1636,1601L1636,1551ZM1636,1601L1736,1601L1736,1850L1636,1850L1636,1601ZM1436,1651L1536,1651L1536,1850L1436,1850L1436,1651Z" /></g><g><path fill="#d87656" fill-opacity="0" d="M1186,1101L1786,1101L1786,1251L1186,1251L1186,1101ZM1836,1201L1936,1201L1936,1351L1836,1351L1836,1201ZM1186,1251L1286,1251L1286,1651L1186,1651L1186,1251ZM1386,1251L1686,1251L1686,1651L1386,1651L1386,1251ZM1936,1251L1986,1251L1986,1451L1936,1451L1936,1251ZM1886,1351L1936,1351L1936,1401L1886,1401L1886,1351ZM1286,1401L1386,1401L1386,1651L1286,1651L1286,1401ZM1686,1401L1786,1401L1786,1701L1686,1701L1686,1401ZM1786,1501L1886,1501L1886,1801L1786,1801L1786,1501ZM1886,1551L1986,1551L1986,1801L1886,1801L1886,1551ZM1236,1651L1336,1651L1336,1801L1236,1801L1236,1651ZM1536,1651L1636,1651L1636,1801L1536,1801L1536,1651ZM1986,1651L2036,1651L2036,1801L1986,1801L1986,1651ZM1736,1701L1786,1701L1786,1850L1736,1850L1736,1701ZM1186,1751L1236,1751L1236,1850L1186,1850L1186,1751ZM1486,1751L1536,1751L1536,1850L1486,1850L1486,1751ZM1686,1751L1736,1751L1736,1850L1686,1850L1686,1751ZM1236,1801L1286,1801L1286,1850L1236,1850L1236,1801ZM1536,1801L1586,1801L1586,1850L1536,1850L1536,1801Z" /></g><g><path fill="#d87656" fill-opacity="0" d="M1236,1151L1836,1151L1836,1301L1236,1301L1236,1151ZM1236,1301L1336,1301L1336,1801L1236,1801L1236,1301ZM1436,1301L1736,1301L1736,1701L1436,1701L1436,1301ZM1336,1401L1436,1401L1436,1701L1336,1701L1336,1401ZM1736,1401L1836,1401L1836,1801L1736,1801L1736,1401ZM1836,1501L1986,1501L1986,1850L1836,1850L1836,1501ZM1986,1651L2036,1651L2036,1850L1986,1850L1986,1651ZM1536,1701L1636,1701L1636,1801L1536,1801L1536,1701ZM1186,1751L1236,1751L1236,1850L1186,1850L1186,1751ZM1486,1751L1536,1751L1536,1850L1486,1850L1486,1751ZM1686,1751L1736,1751L1736,1850L1686,1850L1686,1751ZM1236,1801L1286,1801L1286,1850L1236,1850L1236,1801ZM1536,1801L1586,1801L1586,1850L1536,1850L1536,1801ZM1736,1801L1786,1801L1786,1850L1736,1850L1736,1801Z" /></g><g><path fill="#d87656" fill-opacity="0" d="M1236,1151L1836,1151L1836,1301L1236,1301L1236,1151ZM1236,1301L1336,1301L1336,1801L1236,1801L1236,1301ZM1436,1301L1736,1301L1736,1701L1436,1701L1436,1301ZM1336,1401L1436,1401L1436,1701L1336,1701L1336,1401ZM1736,1401L1986,1401L1986,1601L1736,1601L1736,1401ZM1736,1601L1836,1601L1836,1801L1736,1801L1736,1601ZM1536,1701L1636,1701L1636,1801L1536,1801L1536,1701ZM1186,1751L1236,1751L1236,1850L1186,1850L1186,1751ZM1486,1751L1536,1751L1536,1850L1486,1850L1486,1751ZM1686,1751L1736,1751L1736,1850L1686,1850L1686,1751ZM1236,1801L1286,1801L1286,1850L1236,1850L1236,1801ZM1536,1801L1586,1801L1586,1850L1536,1850L1536,1801ZM1736,1801L1786,1801L1786,1850L1736,1850L1736,1801ZM1836,1801L2036,1801L2036,1850L1836,1850L1836,1801Z" /></g><g><path fill="#d87656" fill-opacity="0" d="M1236,1151L1836,1151L1836,1301L1236,1301L1236,1151ZM1236,1301L1336,1301L1336,1801L1236,1801L1236,1301ZM1436,1301L1736,1301L1736,1701L1436,1701L1436,1301ZM1336,1401L1436,1401L1436,1701L1336,1701L1336,1401ZM1736,1401L1836,1401L1836,1801L1736,1801L1736,1401ZM1836,1501L1986,1501L1986,1751L1836,1751L1836,1501ZM1536,1701L1636,1701L1636,1801L1536,1801L1536,1701ZM1186,1751L1236,1751L1236,1850L1186,1850L1186,1751ZM1486,1751L1536,1751L1536,1850L1486,1850L1486,1751ZM1686,1751L1736,1751L1736,1850L1686,1850L1686,1751ZM1236,1801L1286,1801L1286,1850L1236,1850L1236,1801ZM1536,1801L1586,1801L1586,1850L1536,1850L1536,1801ZM1736,1801L1786,1801L1786,1850L1736,1850L1736,1801Z" /></g><g><path fill="#d87656" fill-opacity="0" d="M1236,1151L1836,1151L1836,1301L1236,1301L1236,1151ZM1236,1301L1336,1301L1336,1801L1236,1801L1236,1301ZM1436,1301L1736,1301L1736,1701L1436,1701L1436,1301ZM1336,1401L1436,1401L1436,1701L1336,1701L1336,1401ZM1736,1401L1986,1401L1986,1601L1736,1601L1736,1401ZM1736,1601L1836,1601L1836,1801L1736,1801L1736,1601ZM1536,1701L1636,1701L1636,1801L1536,1801L1536,1701ZM1186,1751L1236,1751L1236,1850L1186,1850L1186,1751ZM1486,1751L1536,1751L1536,1850L1486,1850L1486,1751ZM1686,1751L1736,1751L1736,1850L1686,1850L1686,1751ZM1236,1801L1286,1801L1286,1850L1236,1850L1236,1801ZM1536,1801L1586,1801L1586,1850L1536,1850L1536,1801ZM1736,1801L1786,1801L1786,1850L1736,1850L1736,1801Z" /></g><g><path fill="#d87656" fill-opacity="0" d="M1236,1151L1836,1151L1836,1301L1236,1301L1236,1151ZM1236,1301L1336,1301L1336,1801L1236,1801L1236,1301ZM1436,1301L1736,1301L1736,1701L1436,1701L1436,1301ZM1336,1401L1436,1401L1436,1701L1336,1701L1336,1401ZM1736,1401L1836,1401L1836,1801L1736,1801L1736,1401ZM1836,1451L1986,1451L1986,1651L1836,1651L1836,1451ZM1536,1701L1636,1701L1636,1801L1536,1801L1536,1701ZM1186,1751L1236,1751L1236,1850L1186,1850L1186,1751ZM1486,1751L1536,1751L1536,1850L1486,1850L1486,1751ZM1686,1751L1736,1751L1736,1850L1686,1850L1686,1751ZM1236,1801L1286,1801L1286,1850L1236,1850L1236,1801ZM1536,1801L1586,1801L1586,1850L1536,1850L1536,1801ZM1736,1801L1786,1801L1786,1850L1736,1850L1736,1801Z" /></g><g><path fill="#d87656" fill-opacity="0" d="M1236,1101L1836,1101L1836,1251L1236,1251L1236,1101ZM1886,1201L1986,1201L1986,1351L1886,1351L1886,1201ZM1236,1251L1336,1251L1336,1801L1236,1801L1236,1251ZM1436,1251L1736,1251L1736,1651L1436,1651L1436,1251ZM1986,1251L2036,1251L2036,1451L1986,1451L1986,1251ZM1936,1351L1986,1351L1986,1401L1936,1401L1936,1351ZM1336,1401L1436,1401L1436,1651L1336,1651L1336,1401ZM1736,1401L1836,1401L1836,1801L1736,1801L1736,1401ZM1836,1551L2036,1551L2036,1801L1836,1801L1836,1551ZM1536,1651L1636,1651L1636,1801L1536,1801L1536,1651ZM1186,1751L1236,1751L1236,1850L1186,1850L1186,1751ZM1486,1751L1536,1751L1536,1850L1486,1850L1486,1751ZM1686,1751L1736,1751L1736,1850L1686,1850L1686,1751ZM1236,1801L1286,1801L1286,1850L1236,1850L1236,1801ZM1536,1801L1586,1801L1586,1850L1536,1850L1536,1801ZM1736,1801L1786,1801L1786,1850L1736,1850L1736,1801Z" /></g><g><path fill="#d87656" fill-opacity="0" d="M1136,851L1336,851L1336,1201L1136,1201L1136,851ZM1636,851L1836,851L1836,1151L1636,1151L1636,851ZM1086,951L1136,951L1136,1651L1086,1651L1086,951ZM1836,951L1886,951L1886,1151L1836,1151L1836,951ZM1336,1001L1636,1001L1636,1651L1336,1651L1336,1001ZM1636,1151L1786,1151L1786,1201L1636,1201L1636,1151ZM1236,1201L1336,1201L1336,1651L1236,1651L1236,1201ZM1736,1201L1786,1201L1786,1850L1736,1850L1736,1201ZM1136,1301L1236,1301L1236,1651L1136,1651L1136,1301ZM1636,1301L1736,1301L1736,1651L1636,1651L1636,1301ZM1036,1651L1086,1651L1086,1850L1036,1850L1036,1651ZM1186,1651L1286,1651L1286,1850L1186,1850L1186,1651ZM1486,1651L1586,1651L1586,1850L1486,1850L1486,1651ZM1686,1651L1736,1651L1736,1850L1686,1850L1686,1651Z" /></g><g><path fill="#d87656" fill-opacity="0" d="M936,1051L1736,1051L1736,1201L936,1201L936,1051ZM736,1201L1036,1201L1036,1401L736,1401L736,1201ZM1136,1201L1536,1201L1536,1651L1136,1651L1136,1201ZM1636,1201L1736,1201L1736,1850L1636,1850L1636,1201ZM1736,1251L1936,1251L1936,1451L1736,1451L1736,1251ZM1036,1301L1136,1301L1136,1651L1036,1651L1036,1301ZM1536,1301L1636,1301L1636,1651L1536,1651L1536,1301ZM936,1401L1036,1401L1036,1850L936,1850L936,1401ZM1136,1651L1236,1651L1236,1850L1136,1850L1136,1651ZM1436,1651L1536,1651L1536,1850L1436,1850L1436,1651Z" /></g><g><path fill="#d87656" fill-opacity="0" d="M936,1051L1736,1051L1736,1201L936,1201L936,1051ZM936,1201L1036,1201L1036,1850L936,1850L936,1201ZM1136,1201L1536,1201L1536,1651L1136,1651L1136,1201ZM1636,1201L1736,1201L1736,1850L1636,1850L1636,1201ZM736,1301L936,1301L936,1501L736,1501L736,1301ZM1036,1301L1136,1301L1136,1651L1036,1651L1036,1301ZM1536,1301L1636,1301L1636,1651L1536,1651L1536,1301ZM1736,1501L1936,1501L1936,1701L1736,1701L1736,1501ZM1136,1651L1236,1651L1236,1850L1136,1850L1136,1651ZM1436,1651L1536,1651L1536,1850L1436,1850L1436,1651Z" /></g><g><path fill="#d87656" fill-opacity="0" d="M936,1051L1736,1051L1736,1201L936,1201L936,1051ZM936,1201L1036,1201L1036,1850L936,1850L936,1201ZM1136,1201L1536,1201L1536,1651L1136,1651L1136,1201ZM1636,1201L1736,1201L1736,1850L1636,1850L1636,1201ZM736,1251L936,1251L936,1451L736,1451L736,1251ZM1036,1301L1136,1301L1136,1651L1036,1651L1036,1301ZM1536,1301L1636,1301L1636,1651L1536,1651L1536,1301ZM1736,1301L1836,1301L1836,1651L1736,1651L1736,1301ZM1836,1351L1886,1351L1886,1401L1836,1401L1836,1351ZM1836,1501L1936,1501L1936,1651L1836,1651L1836,1501ZM1136,1651L1236,1651L1236,1850L1136,1850L1136,1651ZM1436,1651L1536,1651L1536,1850L1436,1850L1436,1651Z" /></g><g><path fill="#d87656" fill-opacity="0" d="M1736,1001L1936,1001L1936,1201L1736,1201L1736,1001ZM936,1051L1736,1051L1736,1151L936,1151L936,1051ZM936,1151L1036,1151L1036,1850L936,1850L936,1151ZM1136,1151L1536,1151L1536,1651L1136,1651L1136,1151ZM1636,1151L1736,1151L1736,1850L1636,1850L1636,1151ZM1036,1251L1136,1251L1136,1651L1036,1651L1036,1251ZM1536,1251L1636,1251L1636,1651L1536,1651L1536,1251ZM736,1301L936,1301L936,1501L736,1501L736,1301ZM1136,1651L1236,1651L1236,1850L1136,1850L1136,1651ZM1436,1651L1536,1651L1536,1850L1436,1850L1436,1651Z" /></g><g><path fill="#d87656" fill-opacity="0" d="M936,1051L1736,1051L1736,1151L936,1151L936,1051ZM936,1151L1036,1151L1036,1850L936,1850L936,1151ZM1136,1151L1536,1151L1536,1651L1136,1651L1136,1151ZM1636,1151L1936,1151L1936,1351L1636,1351L1636,1151ZM1036,1251L1136,1251L1136,1651L1036,1651L1036,1251ZM1536,1251L1636,1251L1636,1651L1536,1651L1536,1251ZM736,1301L936,1301L936,1501L736,1501L736,1301ZM1636,1351L1886,1351L1886,1401L1636,1401L1636,1351ZM1636,1401L1836,1401L1836,1451L1636,1451L1636,1401ZM1636,1451L1736,1451L1736,1850L1636,1850L1636,1451ZM1136,1651L1236,1651L1236,1850L1136,1850L1136,1651ZM1436,1651L1536,1651L1536,1850L1436,1850L1436,1651Z" /></g><g><path fill="#d87656" fill-opacity="0" d="M936,1101L1736,1101L1736,1301L936,1301L936,1101ZM736,1201L936,1201L936,1401L736,1401L736,1201ZM936,1301L1536,1301L1536,1351L936,1351L936,1301ZM1636,1301L1736,1301L1736,1850L1636,1850L1636,1301ZM936,1351L1036,1351L1036,1850L936,1850L936,1351ZM1186,1351L1536,1351L1536,1701L1186,1701L1186,1351ZM1036,1401L1186,1401L1186,1701L1036,1701L1036,1401ZM1536,1401L1636,1401L1636,1701L1536,1701L1536,1401ZM1736,1451L1886,1451L1886,1601L1736,1601L1736,1451ZM1736,1601L1836,1601L1836,1651L1736,1651L1736,1601ZM1136,1701L1236,1701L1236,1850L1136,1850L1136,1701ZM1436,1701L1536,1701L1536,1850L1436,1850L1436,1701Z" /></g><g><path fill="#d87656" fill-opacity="0" d="M936,1101L1736,1101L1736,1301L936,1301L936,1101ZM736,1201L936,1201L936,1401L736,1401L736,1201ZM936,1301L1536,1301L1536,1351L936,1351L936,1301ZM1636,1301L1736,1301L1736,1850L1636,1850L1636,1301ZM936,1351L1036,1351L1036,1850L936,1850L936,1351ZM1186,1351L1536,1351L1536,1701L1186,1701L1186,1351ZM1036,1401L1186,1401L1186,1701L1036,1701L1036,1401ZM1536,1401L1636,1401L1636,1701L1536,1701L1536,1401ZM1736,1401L1886,1401L1886,1551L1736,1551L1736,1401ZM1736,1551L1836,1551L1836,1601L1736,1601L1736,1551ZM1136,1701L1236,1701L1236,1850L1136,1850L1136,1701ZM1436,1701L1536,1701L1536,1850L1436,1850L1436,1701Z" /></g><g><path fill="#d87656" fill-opacity="1" d="M936,1051L1736,1051L1736,1151L936,1151L936,1051ZM936,1151L1036,1151L1036,1850L936,1850L936,1151ZM1136,1151L1536,1151L1536,1651L1136,1651L1136,1151ZM1636,1151L1736,1151L1736,1850L1636,1850L1636,1151ZM736,1251L936,1251L936,1451L736,1451L736,1251ZM1036,1251L1136,1251L1136,1651L1036,1651L1036,1251ZM1536,1251L1636,1251L1636,1651L1536,1651L1536,1251ZM1736,1251L1936,1251L1936,1451L1736,1451L1736,1251ZM1136,1651L1236,1651L1236,1850L1136,1850L1136,1651ZM1436,1651L1536,1651L1536,1850L1436,1850L1436,1651Z" /></g></g><g transform="matrix(1,0,0,1,0,0)" id="black"><g><path fill="#000000" fill-opacity="0" d="M1036,1301L1136,1301L1136,1401L1036,1401L1036,1301ZM1536,1301L1636,1301L1636,1401L1536,1401L1536,1301Z" /></g><g><path fill="#000000" fill-opacity="0" d="M1286,1251L1386,1251L1386,1401L1286,1401L1286,1251ZM1686,1251L1786,1251L1786,1401L1686,1401L1686,1251Z" /></g><g><path fill="#000000" fill-opacity="0" d="M1336,1301L1436,1301L1436,1401L1336,1401L1336,1301ZM1736,1301L1836,1301L1836,1401L1736,1401L1736,1301Z" /></g><g><path fill="#000000" fill-opacity="0" d="M1336,1251L1436,1251L1436,1401L1336,1401L1336,1251ZM1736,1251L1836,1251L1836,1401L1736,1401L1736,1251Z" /></g><g><path fill="#000000" fill-opacity="0" d="M1136,1201L1236,1201L1236,1301L1136,1301L1136,1201ZM1636,1201L1736,1201L1736,1301L1636,1301L1636,1201Z" /></g><g><path fill="#000000" fill-opacity="0" d="M1036,1201L1136,1201L1136,1301L1036,1301L1036,1201ZM1536,1201L1636,1201L1636,1301L1536,1301L1536,1201Z" /></g><g><path fill="#000000" fill-opacity="0" d="M1536,1301L1636,1301L1636,1401L1536,1401L1536,1301ZM1036,1351L1186,1351L1186,1401L1036,1401L1036,1351Z" /></g><g><path fill="#000000" fill-opacity="1" d="M1036,1151L1136,1151L1136,1251L1036,1251L1036,1151ZM1536,1151L1636,1151L1636,1251L1536,1251L1536,1151Z" /></g></g></svg>
